<svg width="39" height="39" viewBox="0 0 39 39" fill="none" xmlns="http://www.w3.org/2000/svg">
<path d="M15.6126 0C6.98449 0 0 8.73081 0 19.5C0 30.2692 6.98449 39 15.6126 39C22.7445 39 28.7563 33.0327 30.6287 24.8811H25.1245C23.4811 29.3898 19.8403 32.5218 15.6126 32.5218C9.84606 32.5218 5.17977 26.6975 5.17977 19.5C5.17977 12.3025 9.84606 6.45211 15.6126 6.45211C19.715 6.45211 23.259 9.41628 24.9675 13.714H30.5449C28.5722 5.76387 22.6296 0 15.6126 0ZM32.3657 11.7287V15.7907H21.1272C20.0966 15.7907 19.2646 16.8292 19.2646 18.1155V20.6102C19.2646 21.8966 20.0966 22.922 21.1272 22.922H32.3657V27.2713L39 19.5L32.3657 11.7287Z" fill="url(#paint0_linear_6_88)"/>
<defs>
<linearGradient id="paint0_linear_6_88" x1="-3.44272" y1="43.7803" x2="48.767" y2="1.95093" gradientUnits="userSpaceOnUse">
<stop stop-color="#333333"/>
<stop offset="1" stop-color="#5D5D5D"/>
</linearGradient>
</defs>
</svg>
