<svg width="35" height="40" viewBox="0 0 35 40" fill="none" xmlns="http://www.w3.org/2000/svg">
<path fill-rule="evenodd" clip-rule="evenodd" d="M33.3833 34.8445L24.364 24.6137C26.1813 21.6907 27.1236 17.9984 26.6525 14.0753C25.8448 7.4599 21.1333 2.22914 15.2775 1.61375C7.33518 0.690674 0.60441 8.38298 1.4121 17.5368C1.95056 24.1522 6.52749 29.6137 12.3159 30.5368C15.7486 31.0753 18.9794 29.9984 21.5371 27.9214L30.489 38.1522C30.8929 38.6138 31.4986 38.6138 31.9025 38.1522L33.3159 36.5368C33.7198 36.0753 33.7198 35.3061 33.3833 34.8445ZM5.38326 16.0753C5.38326 10.6138 9.2871 6.15221 14.0659 6.15221C18.8448 6.15221 22.7486 10.6138 22.7486 16.0753C22.7486 21.5368 18.8448 25.9984 14.0659 25.9984C9.2871 25.9984 5.38326 21.6138 5.38326 16.0753Z" fill="#4B4949" fill-opacity="0.54"/>
</svg>
